<?xml version="1.0" standalone="no"?>
<!DOCTYPE svg PUBLIC "-//W3C//DTD SVG 20010904//EN"
 "http://www.w3.org/TR/2001/REC-SVG-20010904/DTD/svg10.dtd">
<svg version="1.0" xmlns="http://www.w3.org/2000/svg"
 width="1024.000000pt" height="1024.000000pt" viewBox="0 0 1024.000000 1024.000000"
 preserveAspectRatio="xMidYMid meet">

<g transform="translate(0.000000,1024.000000) scale(0.100000,-0.100000)"
fill="#000000" stroke="none">
<path d="M3359 7776 c-123 -43 -227 -137 -282 -254 l-32 -67 -3 -828 -3 -829
73 65 c40 36 123 103 183 149 l110 83 0 373 0 372 2048 0 2047 0 0 -1163 c0
-723 -4 -1175 -10 -1196 -15 -54 -51 -98 -101 -126 l-46 -25 -905 0 c-772 0
-916 2 -985 15 -325 62 -554 260 -627 542 -21 79 -21 240 -1 318 73 279 343
484 638 485 147 0 327 -61 443 -151 52 -40 84 -48 102 -26 16 19 -12 163 -51
260 -124 313 -421 527 -820 592 -562 91 -1172 -92 -1633 -488 -186 -161 -301
-298 -511 -614 -75 -114 -164 -241 -197 -283 -221 -279 -527 -504 -823 -607
-46 -15 -83 -31 -83 -35 0 -5 32 -42 72 -84 278 -292 687 -514 1144 -618 234
-54 306 -61 644 -60 481 0 673 32 1413 238 198 55 382 100 527 128 99 20 152
21 915 27 802 7 811 7 876 29 134 45 271 159 330 275 11 21 29 73 40 114 18
74 19 124 19 1522 0 856 -4 1469 -10 1503 -21 129 -113 258 -232 326 -115 66
33 62 -2188 62 l-2015 0 -66 -24z m3027 -342 c44 -21 74 -70 74 -124 0 -76
-51 -130 -129 -137 -144 -12 -204 173 -82 254 40 27 89 29 137 7z m508 2 c69
-29 103 -120 69 -186 -53 -102 -198 -107 -249 -8 -62 120 55 246 180 194z
m494 0 c103 -53 109 -195 11 -248 -98 -52 -219 27 -205 136 11 94 115 153 194
112z"/>
</g>
</svg>
